HIERARCHY
ROOT Hips
{
	OFFSET 0.000000 71.427986 0.000000
	CHANNELS 6 Xposition Yposition Zposition Xrotation Yrotation Zrotation
	JOINT Pelvis
	{
		OFFSET 0.000000 0.000000 0.000000
		CHANNELS 3 Xrotation Yrotation Zrotation
		JOINT LeftUpLeg
		{
			OFFSET 6.797100 -2.508499 -1.318700
			CHANNELS 3 Xrotation Yrotation Zrotation
			JOINT LeftLeg
			{
				OFFSET 0.069008 -29.241863 0.690200
				CHANNELS 3 Xrotation Yrotation Zrotation
				JOINT LeftFoot
				{
					OFFSET -0.069008 -29.568123 -0.266800
					CHANNELS 3 Xrotation Yrotation Zrotation
					JOINT LeftToeBase
					{
						OFFSET 3.145500 -8.631000 16.059900
						CHANNELS 3 Xrotation Yrotation Zrotation
						End Site
						{
							OFFSET 0.000000 18.501587 0.000000
						}
					}
				}
			}
			JOINT Left_ShortSleeve
			{
				OFFSET 0.265923 -10.480953 1.153800
				CHANNELS 3 Xrotation Yrotation Zrotation
				End Site
				{
					OFFSET 1.725763 19.823879 0.000000
				}
			}
		}
		JOINT RightUpLeg
		{
			OFFSET -6.797100 -2.508499 -1.318700
			CHANNELS 3 Xrotation Yrotation Zrotation
			JOINT RightLeg
			{
				OFFSET -0.082453 -29.241932 0.688000
				CHANNELS 3 Xrotation Yrotation Zrotation
				JOINT RightFoot
				{
					OFFSET 0.082453 -29.568058 -0.264600
					CHANNELS 3 Xrotation Yrotation Zrotation
					JOINT RightToeBase
					{
						OFFSET -3.115300 -8.682800 16.113400
						CHANNELS 3 Xrotation Yrotation Zrotation
						End Site
						{
							OFFSET 0.000000 18.567114 0.000000
						}
					}
				}
			}
			JOINT Right_ShortSleeve
			{
				OFFSET -0.265923 -10.480953 1.153800
				CHANNELS 3 Xrotation Yrotation Zrotation
				End Site
				{
					OFFSET -1.725766 19.823910 0.000000
				}
			}
		}
	}
	JOINT Spine
	{
		OFFSET 0.000000 13.368103 0.470500
		CHANNELS 3 Xrotation Yrotation Zrotation
		JOINT Spine1
		{
			OFFSET 0.147000 13.837402 0.538800
			CHANNELS 3 Xrotation Yrotation Zrotation
			JOINT Spine2
			{
				OFFSET 0.168000 16.242897 -1.435500
				CHANNELS 3 Xrotation Yrotation Zrotation
				JOINT Neck
				{
					OFFSET 0.217200 18.631500 -1.679100
					CHANNELS 3 Xrotation Yrotation Zrotation
					JOINT Head
					{
						OFFSET 0.000000 6.599396 1.385900
						CHANNELS 3 Xrotation Yrotation Zrotation
						JOINT Hat
						{
							OFFSET -0.532200 27.220596 -10.096100
							CHANNELS 3 Xrotation Yrotation Zrotation
							End Site
							{
								OFFSET 0.000000 22.029861 0.000000
							}
						}
						JOINT HairD
						{
							OFFSET -10.777400 17.437393 -1.325900
							CHANNELS 3 Xrotation Yrotation Zrotation
							JOINT HairD1
							{
								OFFSET -3.290299 -11.051193 1.062200
								CHANNELS 3 Xrotation Yrotation Zrotation
								End Site
								{
									OFFSET 0.000000 11.579437 0.000000
								}
							}
						}
						JOINT HairB
						{
							OFFSET -10.777400 17.437393 1.467900
							CHANNELS 3 Xrotation Yrotation Zrotation
							JOINT HairB1
							{
								OFFSET -1.561200 -12.956299 3.590200
								CHANNELS 3 Xrotation Yrotation Zrotation
								End Site
								{
									OFFSET 0.000000 13.534866 0.000000
								}
							}
						}
						JOINT HairA
						{
							OFFSET 9.713100 17.437393 1.467900
							CHANNELS 3 Xrotation Yrotation Zrotation
							JOINT HairA1
							{
								OFFSET 1.561200 -12.956299 3.590200
								CHANNELS 3 Xrotation Yrotation Zrotation
								End Site
								{
									OFFSET 0.000000 13.534866 0.000000
								}
							}
						}
						JOINT HairC
						{
							OFFSET 9.713100 17.437393 -1.325900
							CHANNELS 3 Xrotation Yrotation Zrotation
							JOINT HairC1
							{
								OFFSET 3.290300 -11.051193 1.062200
								CHANNELS 3 Xrotation Yrotation Zrotation
								End Site
								{
									OFFSET 0.000000 11.579437 0.000000
								}
							}
						}
					}
				}
				JOINT LeftShoulder
				{
					OFFSET 5.101800 15.108002 -2.763700
					CHANNELS 3 Xrotation Yrotation Zrotation
					JOINT LeftArm
					{
						OFFSET 9.825497 2.506317 -1.597400
						CHANNELS 3 Xrotation Yrotation Zrotation
						JOINT LeftForeArm
						{
							OFFSET 21.966244 0.000000 0.000000
							CHANNELS 3 Xrotation Yrotation Zrotation
							JOINT LeftHand
							{
								OFFSET 33.879036 0.000000 0.000000
								CHANNELS 3 Xrotation Yrotation Zrotation
								JOINT LeftHandThumb1
								{
									OFFSET 6.715286 -2.359680 3.363841
									CHANNELS 3 Xrotation Yrotation Zrotation
									JOINT LeftHandThumb2
									{
										OFFSET 2.507072 -1.447464 1.447461
										CHANNELS 3 Xrotation Yrotation Zrotation
										JOINT LeftHandThumb3
										{
											OFFSET 2.898338 -1.673355 1.673357
											CHANNELS 3 Xrotation Yrotation Zrotation
											End Site
											{
												OFFSET -0.295959 3.727692 -0.131651
											}
										}
									}
								}
								JOINT LeftHandIndex1
								{
									OFFSET 14.190811 -0.254547 3.840278
									CHANNELS 3 Xrotation Yrotation Zrotation
									JOINT LeftHandIndex2
									{
										OFFSET 3.551727 0.000000 -0.000000
										CHANNELS 3 Xrotation Yrotation Zrotation
										JOINT LeftHandIndex3
										{
											OFFSET 2.894196 0.000000 0.000000
											CHANNELS 3 Xrotation Yrotation Zrotation
											End Site
											{
												OFFSET -1.000603 2.690872 0.366626
											}
										}
									}
								}
								JOINT LeftHandMiddle1
								{
									OFFSET 13.776489 0.000000 0.000000
									CHANNELS 3 Xrotation Yrotation Zrotation
									JOINT LeftHandMiddle2
									{
										OFFSET 3.438232 0.000000 0.000000
										CHANNELS 3 Xrotation Yrotation Zrotation
										JOINT LeftHandMiddle3
										{
											OFFSET 3.691551 0.000000 0.000000
											CHANNELS 3 Xrotation Yrotation Zrotation
											End Site
											{
												OFFSET -1.082298 3.499527 0.457670
											}
										}
									}
								}
								JOINT LeftHandRing1
								{
									OFFSET 13.966164 -0.268127 -3.067488
									CHANNELS 3 Xrotation Yrotation Zrotation
									JOINT LeftHandRing2
									{
										OFFSET 3.162567 0.000000 0.000000
										CHANNELS 3 Xrotation Yrotation Zrotation
										JOINT LeftHandRing3
										{
											OFFSET 3.324348 0.000000 0.000000
											CHANNELS 3 Xrotation Yrotation Zrotation
											End Site
											{
												OFFSET -0.861900 3.184998 0.405154
											}
										}
									}
								}
								JOINT LeftHandPinky1
								{
									OFFSET 13.131393 -0.168503 -5.746925
									CHANNELS 3 Xrotation Yrotation Zrotation
									JOINT LeftHandPinky2
									{
										OFFSET 2.849182 0.000000 0.000000
										CHANNELS 3 Xrotation Yrotation Zrotation
										JOINT LeftHandPinky3
										{
											OFFSET 2.805038 0.000000 0.000000
											CHANNELS 3 Xrotation Yrotation Zrotation
											End Site
											{
												OFFSET -0.882500 2.642609 0.325652
											}
										}
									}
								}
							}
							JOINT Left_Sleeve
							{
								OFFSET 6.592125 -0.646545 0.805568
								CHANNELS 3 Xrotation Yrotation Zrotation
								End Site
								{
									OFFSET -0.000179 20.275787 -0.000000
								}
							}
						}
					}
				}
				JOINT RightShoulder
				{
					OFFSET -5.731700 15.108002 -2.763700
					CHANNELS 3 Xrotation Yrotation Zrotation
					JOINT RightArm
					{
						OFFSET -9.825497 2.506317 -1.597400
						CHANNELS 3 Xrotation Yrotation Zrotation
						JOINT RightForeArm
						{
							OFFSET -21.966242 0.000000 0.000000
							CHANNELS 3 Xrotation Yrotation Zrotation
							JOINT RightHand
							{
								OFFSET -33.879032 0.000000 0.000000
								CHANNELS 3 Xrotation Yrotation Zrotation
								JOINT RightHandThumb1
								{
									OFFSET -6.715286 -2.359680 3.363841
									CHANNELS 3 Xrotation Yrotation Zrotation
									JOINT RightHandThumb2
									{
										OFFSET -2.507072 -1.447464 1.447461
										CHANNELS 3 Xrotation Yrotation Zrotation
										JOINT RightHandThumb3
										{
											OFFSET -2.898338 -1.673355 1.673357
											CHANNELS 3 Xrotation Yrotation Zrotation
											End Site
											{
												OFFSET 0.295959 3.727692 -0.131651
											}
										}
									}
								}
								JOINT RightHandIndex1
								{
									OFFSET -14.190811 -0.254547 3.840278
									CHANNELS 3 Xrotation Yrotation Zrotation
									JOINT RightHandIndex2
									{
										OFFSET -3.551727 0.000000 -0.000000
										CHANNELS 3 Xrotation Yrotation Zrotation
										JOINT RightHandIndex3
										{
											OFFSET -2.894196 0.000000 0.000000
											CHANNELS 3 Xrotation Yrotation Zrotation
											End Site
											{
												OFFSET 1.000603 2.690872 0.366626
											}
										}
									}
								}
								JOINT RightHandMiddle1
								{
									OFFSET -13.776489 0.000000 0.000000
									CHANNELS 3 Xrotation Yrotation Zrotation
									JOINT RightHandMiddle2
									{
										OFFSET -3.438232 0.000000 0.000000
										CHANNELS 3 Xrotation Yrotation Zrotation
										JOINT RightHandMiddle3
										{
											OFFSET -3.691551 0.000000 0.000000
											CHANNELS 3 Xrotation Yrotation Zrotation
											End Site
											{
												OFFSET 1.082298 3.499527 0.457670
											}
										}
									}
								}
								JOINT RightHandRing1
								{
									OFFSET -13.966164 -0.268127 -3.067488
									CHANNELS 3 Xrotation Yrotation Zrotation
									JOINT RightHandRing2
									{
										OFFSET -3.162567 0.000000 0.000000
										CHANNELS 3 Xrotation Yrotation Zrotation
										JOINT RightHandRing3
										{
											OFFSET -3.324348 0.000000 0.000000
											CHANNELS 3 Xrotation Yrotation Zrotation
											End Site
											{
												OFFSET 0.861900 3.184998 0.405154
											}
										}
									}
								}
								JOINT RightHandPinky1
								{
									OFFSET -13.131393 -0.168503 -5.746925
									CHANNELS 3 Xrotation Yrotation Zrotation
									JOINT RightHandPinky2
									{
										OFFSET -2.849182 0.000000 0.000000
										CHANNELS 3 Xrotation Yrotation Zrotation
										JOINT RightHandPinky3
										{
											OFFSET -2.805038 0.000000 0.000000
											CHANNELS 3 Xrotation Yrotation Zrotation
											End Site
											{
												OFFSET 0.882500 2.642609 0.325652
											}
										}
									}
								}
							}
							JOINT Right_Sleeve
							{
								OFFSET -6.592125 -0.646545 0.805568
								CHANNELS 3 Xrotation Yrotation Zrotation
								End Site
								{
									OFFSET 0.000179 20.275787 -0.000000
								}
							}
						}
					}
				}
				JOINT Bind_Right_JacketString
				{
					OFFSET -3.534800 11.969597 7.200700
					CHANNELS 3 Xrotation Yrotation Zrotation
					JOINT Bind_Right_JacketString1
					{
						OFFSET -0.319900 -6.102600 2.794100
						CHANNELS 3 Xrotation Yrotation Zrotation
						End Site
						{
							OFFSET 0.000000 6.719452 0.000000
						}
					}
				}
				JOINT Bind_Left_JacketString
				{
					OFFSET 2.904800 11.969597 7.200700
					CHANNELS 3 Xrotation Yrotation Zrotation
					JOINT Bind_Left_JacketString1
					{
						OFFSET 0.364800 -5.904503 3.186800
						CHANNELS 3 Xrotation Yrotation Zrotation
						End Site
						{
							OFFSET 0.000000 6.719513 0.000000
						}
					}
				}
				JOINT HairE
				{
					OFFSET 5.915200 17.612701 -11.592200
					CHANNELS 3 Xrotation Yrotation Zrotation
					JOINT HairE1
					{
						OFFSET 0.289200 -7.171898 -1.284500
						CHANNELS 3 Xrotation Yrotation Zrotation
						End Site
						{
							OFFSET 0.000000 7.291756 0.000000
						}
					}
				}
				JOINT HairF
				{
					OFFSET -0.864800 17.612701 -11.592200
					CHANNELS 3 Xrotation Yrotation Zrotation
					JOINT HairF1
					{
						OFFSET 0.000000 -14.087097 -2.127501
						CHANNELS 3 Xrotation Yrotation Zrotation
						End Site
						{
							OFFSET 0.000000 14.246841 0.000000
						}
					}
				}
				JOINT HairG
				{
					OFFSET -8.087700 17.612701 -11.592200
					CHANNELS 3 Xrotation Yrotation Zrotation
					JOINT HairG1
					{
						OFFSET -0.293600 -6.081398 -0.910100
						CHANNELS 3 Xrotation Yrotation Zrotation
						End Site
						{
							OFFSET 0.000000 6.156120 0.000000
						}
					}
				}
			}
		}
	}
	JOINT Pouch
	{
		OFFSET 0.000000 4.394501 10.847300
		CHANNELS 3 Xrotation Yrotation Zrotation
		End Site
		{
			OFFSET 0.000000 21.880577 0.000000
		}
	}
	JOINT Bag
	{
		OFFSET -13.229000 4.813004 -0.593300
		CHANNELS 3 Xrotation Yrotation Zrotation
		End Site
		{
			OFFSET 0.000000 21.880577 0.000000
		}
	}
	JOINT OccupyGuyFacialAnim_Joint
	{
		OFFSET 1.000000 -70.206398 -1.655000
		CHANNELS 3 Xrotation Yrotation Zrotation
		End Site
		{
			OFFSET 0.000000 21.880577 0.000000
		}
	}
}
MOTION
Frames: 4
Frame Time: 0.033333
0.199172 70.146088 4.950568 -7.311746 10.146564 4.055576 -0.000000 0.000000 0.000000 -13.952564 -1.656734 -0.310843 55.624466 -4.548908 -0.389769 -6.011119 4.400804 -3.390571 0.000002 -0.000000 0.000000 0.000001 -0.000000 -0.000001 -1.337984 -0.464595 0.259798 24.704014 -10.092810 0.095279 -16.473942 -2.551863 -0.313475 -0.000000 0.000000 -0.000000 -0.000001 -0.000001 -0.000000 13.132472 0.549068 -1.011063 1.653502 0.170430 0.452088 1.652924 0.174036 0.449313 1.669409 -3.125321 0.419432 -3.069904 -5.607671 -3.167640 0.000001 -0.000000 -0.000000 0.000001 -0.000000 -0.000000 0.000001 -0.000000 -0.000000 0.000001 -0.000000 0.000000 0.000001 -0.000000 0.000000 0.000001 -0.000000 0.000000 0.000001 -0.000000 0.000000 0.000001 -0.000000 -0.000000 0.000001 -0.000000 -0.000000 0.931502 3.909897 -15.013408 21.455453 -17.786706 -46.931418 0.000313 -100.159328 0.000310 -21.379725 -12.394288 -1.582639 2.484046 -0.109111 10.704444 4.610112 26.710385 15.767236 0.000002 0.000003 0.000000 2.077381 6.786911 -45.457470 9.005933 4.930095 -122.674569 0.000001 0.000001 -0.000002 -2.062971 2.715089 -45.511039 9.014946 4.924350 -122.779412 0.000000 0.000001 -0.000004 2.937299 7.407676 -55.135643 9.021888 4.919900 -122.860268 -0.000002 0.000001 -0.000001 -3.585402 3.535350 -59.420966 7.978367 5.451901 -111.353646 -0.000000 0.000000 -0.000001 0.000000 -0.000000 -0.000000 0.011285 9.636398 20.279486 -22.205664 -10.905041 52.987129 -0.000000 14.445020 -0.000001 33.433595 2.281295 7.286361 -4.701619 0.143030 -6.868437 12.441586 -30.226572 -4.022636 -0.000002 -0.000002 0.000001 0.241995 -3.612236 16.569100 0.721236 -2.491453 32.285075 -0.000003 0.000001 -0.000005 0.461169 -4.199430 24.281584 0.722534 -2.493522 32.314998 0.000002 -0.000003 -0.000001 0.589470 -4.460861 27.865013 0.724830 -2.497160 32.367863 -0.000000 -0.000004 -0.000001 0.647600 -4.567119 29.355129 0.728742 -2.503296 32.457301 -0.000000 0.000001 0.000002 0.000000 0.000001 -0.000001 -0.000001 -0.000000 -0.000000 0.000000 -0.000000 0.000000 -0.000001 -0.000000 0.000000 -0.000001 -0.000000 0.000000 -0.000001 -0.000000 -0.000000 0.000000 -0.000000 -0.000000 -0.000001 -0.000000 0.000000 -0.000001 -0.000000 0.000000 -0.000001 -0.000000 -0.000000 0.000000 -0.000000 -0.000000 -0.000000 0.000000 0.000000 -0.000000 0.000000 0.000000 -0.000000 0.000000 0.000000 
0.385434 70.392715 6.688003 -7.207557 10.061894 5.039562 -0.000000 0.000001 0.000000 -15.037457 -1.677319 -2.084042 46.674067 -2.294754 -0.223509 -7.868150 4.174785 -5.056912 0.000001 -0.000001 0.000000 -0.000000 -0.000001 -0.000000 1.465963 -1.432965 -0.962172 22.359785 -9.183798 0.302200 -17.081161 -2.319779 -0.535680 -0.000000 0.000000 -0.000000 -0.000000 0.000001 -0.000001 12.899427 1.145689 -1.872962 1.588529 0.274210 0.140375 1.587023 0.275581 0.134319 1.956326 -3.114284 0.217436 -1.435489 -5.210779 -3.410156 -0.000001 -0.000000 0.000000 -0.000001 -0.000000 0.000000 -0.000001 -0.000000 0.000000 -0.000001 -0.000000 0.000000 -0.000001 -0.000000 0.000000 -0.000001 -0.000000 0.000000 -0.000001 -0.000000 0.000000 -0.000001 -0.000000 0.000000 -0.000001 -0.000000 0.000000 0.953748 4.070988 -15.232611 21.473123 -17.594147 -47.119351 0.000124 -100.391179 0.000138 -20.317535 -12.962456 -0.636853 2.484046 -0.109110 10.704446 4.610114 26.710390 15.767241 0.000001 0.000001 0.000000 2.077380 6.786912 -45.457470 9.005931 4.930094 -122.674569 0.000003 0.000001 -0.000002 -2.062972 2.715089 -45.511043 9.014948 4.924350 -122.779412 0.000001 0.000001 -0.000001 2.937298 7.407676 -55.135643 9.021889 4.919901 -122.860268 -0.000001 0.000000 -0.000002 -3.585403 3.535352 -59.420966 7.978366 5.451901 -111.353653 -0.000001 -0.000000 0.000003 0.000003 -0.000001 0.000000 0.032504 9.847510 19.553339 -22.248032 -8.545840 53.440066 0.000006 15.558838 -0.000015 34.195158 2.432661 8.264829 -4.701618 0.143031 -6.868440 12.441583 -30.226575 -4.022636 -0.000002 -0.000001 0.000000 0.241996 -3.612233 16.569105 0.721227 -2.491456 32.285082 -0.000001 0.000000 0.000002 0.461171 -4.199430 24.281587 0.722523 -2.493520 32.315005 0.000000 -0.000001 0.000001 0.589481 -4.460859 27.865017 0.724829 -2.497162 32.367867 0.000006 -0.000003 -0.000001 0.647605 -4.567118 29.355129 0.728735 -2.503294 32.457301 -0.000006 -0.000001 -0.000003 0.000000 -0.000000 0.000001 -0.000000 -0.000000 -0.000000 -0.000000 0.000001 -0.000000 -0.000000 -0.000000 0.000000 -0.000000 -0.000000 0.000000 -0.000000 -0.000000 -0.000000 -0.000000 0.000001 -0.000000 -0.000000 -0.000000 0.000000 -0.000000 -0.000000 0.000000 -0.000000 -0.000000 -0.000000 -0.000000 0.000001 -0.000000 -0.000000 0.000001 0.000000 -0.000000 0.000001 0.000000 -0.000000 0.000001 0.000000 
0.627320 70.512047 8.514078 -6.724550 9.796492 5.698461 0.000000 0.000000 0.000000 -17.639308 -2.173851 -2.482012 39.363268 -0.241056 -0.131272 -7.783640 4.345987 -11.784315 0.000000 -0.000001 -0.000001 0.000001 -0.000001 0.000000 3.874618 -2.334821 -1.947291 20.128912 -8.226655 0.523041 -17.773484 -2.068825 -0.683361 -0.000000 -0.000000 -0.000000 -0.000000 -0.000001 -0.000000 12.425723 1.927407 -2.498930 1.553856 0.406077 -0.110255 1.551645 0.405511 -0.119471 2.147882 -3.100594 -0.044062 -0.275664 -4.874166 -3.884998 0.000001 0.000000 -0.000000 0.000001 0.000000 -0.000000 0.000001 0.000000 -0.000000 0.000001 0.000000 -0.000000 0.000000 0.000000 -0.000000 0.000001 0.000000 -0.000000 0.000000 0.000000 -0.000000 0.000001 0.000000 -0.000000 0.000001 0.000000 -0.000000 1.004723 4.378661 -15.774317 21.388620 -17.573100 -47.168559 0.000283 -100.380244 0.000314 -19.802429 -13.645866 -0.164954 2.484048 -0.109108 10.704447 4.610112 26.710387 15.767234 -0.000000 0.000001 -0.000001 2.077382 6.786910 -45.457467 9.005931 4.930096 -122.674569 -0.000000 0.000001 0.000000 -2.062972 2.715089 -45.511039 9.014948 4.924349 -122.779412 0.000000 0.000001 -0.000001 2.937299 7.407675 -55.135643 9.021888 4.919898 -122.860254 -0.000000 0.000000 0.000002 -3.585404 3.535351 -59.420966 7.978368 5.451901 -111.353646 -0.000001 0.000000 0.000001 -0.000001 0.000001 -0.000001 0.054052 10.048586 18.888273 -22.208268 -6.210846 53.626172 -0.000010 16.892246 0.000030 34.248594 2.691152 8.924102 -4.701622 0.143031 -6.868440 12.441590 -30.226572 -4.022634 -0.000002 0.000002 0.000000 0.241991 -3.612235 16.569105 0.721233 -2.491456 32.285082 -0.000002 0.000001 0.000001 0.461168 -4.199430 24.281591 0.722532 -2.493521 32.315005 0.000001 -0.000003 0.000001 0.589471 -4.460859 27.865012 0.724831 -2.497162 32.367863 -0.000000 -0.000003 0.000000 0.647599 -4.567118 29.355129 0.728741 -2.503294 32.457301 -0.000003 -0.000003 -0.000003 -0.000000 -0.000001 0.000000 0.000000 -0.000000 -0.000000 0.000000 0.000001 -0.000000 0.000000 -0.000000 0.000000 0.000000 -0.000000 0.000000 0.000000 -0.000000 -0.000000 0.000000 0.000001 -0.000000 0.000000 -0.000000 0.000000 0.000000 -0.000000 0.000000 0.000000 -0.000000 -0.000000 0.000000 0.000001 -0.000000 0.000000 0.000000 0.000000 0.000000 0.000000 0.000000 0.000000 0.000000 0.000000 
0.920928 70.528419 10.452274 -5.975738 9.133514 5.871924 -0.000000 -0.000000 0.000001 -19.108829 -2.348966 -3.434526 32.086200 3.210277 0.254344 -13.774978 4.481826 -11.238736 0.000000 0.000000 -0.000000 -0.000001 0.000001 0.000000 6.146051 -3.199600 -2.621302 17.762559 -6.890240 0.823841 -18.361399 -1.818681 -0.872065 0.000000 0.000000 -0.000000 -0.000000 -0.000001 -0.000000 11.794483 2.936988 -2.700884 1.533075 0.568603 -0.292013 1.530878 0.566339 -0.304220 2.242673 -3.078027 -0.355654 0.359642 -4.475756 -4.637754 0.000002 -0.000000 -0.000000 0.000002 -0.000000 -0.000000 0.000002 -0.000000 -0.000000 0.000002 -0.000000 0.000000 0.000001 -0.000000 0.000000 0.000002 -0.000000 0.000000 0.000001 -0.000000 0.000000 0.000002 -0.000000 -0.000000 0.000002 -0.000000 -0.000000 1.079875 4.759894 -16.540963 21.150471 -17.590374 -47.390144 -0.000139 -100.318608 -0.000160 -19.773751 -14.219140 -0.199705 2.484046 -0.109109 10.704446 4.610114 26.710387 15.767237 -0.000000 -0.000002 -0.000001 2.077380 6.786912 -45.457477 9.005931 4.930095 -122.674569 0.000001 0.000000 -0.000000 -2.062970 2.715089 -45.511043 9.014947 4.924350 -122.779412 -0.000000 0.000000 -0.000001 2.937299 7.407677 -55.135647 9.021888 4.919900 -122.860268 0.000000 0.000000 -0.000002 -3.585403 3.535352 -59.420959 7.978367 5.451900 -111.353646 -0.000001 0.000000 -0.000001 -0.000001 0.000001 -0.000001 0.069159 10.293478 18.304403 -22.095554 -4.088868 53.500694 -0.000001 18.418763 0.000008 33.704859 2.976760 9.145780 -4.701626 0.143034 -6.868440 12.441583 -30.226575 -4.022631 0.000000 -0.000001 0.000004 0.241989 -3.612234 16.569098 0.721233 -2.491455 32.285085 0.000005 0.000000 -0.000001 0.461163 -4.199431 24.281584 0.722535 -2.493522 32.315001 -0.000001 0.000002 -0.000000 0.589466 -4.460859 27.865010 0.724831 -2.497162 32.367867 0.000002 -0.000000 -0.000002 0.647596 -4.567116 29.355125 0.728739 -2.503294 32.457301 -0.000003 0.000002 -0.000001 0.000000 0.000003 -0.000002 0.000001 -0.000001 0.000000 0.000001 0.000000 0.000000 0.000001 -0.000001 0.000000 0.000001 -0.000001 0.000000 0.000001 -0.000001 0.000000 0.000001 0.000000 0.000000 0.000001 -0.000001 0.000000 0.000001 -0.000001 0.000000 0.000001 -0.000001 0.000000 0.000001 0.000000 0.000000 -0.000000 -0.000000 0.000001 -0.000000 -0.000000 0.000001 -0.000000 -0.000000 0.000001 
